<svg width="30" height="30" viewBox="0 0 30 30" fill="none" xmlns="http://www.w3.org/2000/svg">
<g clip-path="url(#clip0)">
<path d="M1.55015 30.0001C1.15497 30.0001 0.759799 29.8498 0.459557 29.5473C-0.143186 28.9445 -0.143186 27.9673 0.459557 27.3646L27.3721 0.452058C27.9748 -0.150686 28.952 -0.150686 29.5548 0.452058C30.1575 1.0548 30.1575 2.032 29.5548 2.63512L2.64262 29.5473C2.34012 29.8479 1.94494 30.0001 1.55015 30.0001V30.0001Z" fill="#64FFDA"/>
<path d="M28.4645 30.0001C28.0694 30.0001 27.6746 29.8498 27.3739 29.5473L0.459557 2.63512C-0.143186 2.032 -0.143186 1.0548 0.459557 0.452058C1.0623 -0.150686 2.0395 -0.150686 2.64262 0.452058L29.5548 27.3646C30.1575 27.9673 30.1575 28.9445 29.5548 29.5473C29.2522 29.8479 28.8575 30.0001 28.4645 30.0001Z" fill="#64FFDA"/>
</g>
<defs>
<clipPath id="clip0">
<rect width="30" height="30" fill="white"/>
</clipPath>
</defs>
</svg>
