<svg width="50" height="50" viewBox="0 0 50 50" fill="none" xmlns="http://www.w3.org/2000/svg">
<path d="M30.5076 19.4887C29.9153 18.8929 29.2586 18.3648 28.5497 17.914C26.6719 16.7116 24.4889 16.0727 22.2591 16.0727C19.1642 16.0669 16.1951 17.2966 14.0106 19.4887L3.41248 30.0951C1.23162 32.2802 0.00586144 35.2407 0.00390867 38.3279C-0.00019216 44.7701 5.21879 49.9958 11.661 49.9999C14.7511 50.0106 17.7174 48.7868 19.9012 46.6005L28.6496 37.8521C28.8086 37.6945 28.8973 37.4795 28.8961 37.2557C28.8934 36.7955 28.5182 36.4247 28.058 36.4273H27.7248C25.897 36.4338 24.0855 36.0828 22.3925 35.3942C22.0805 35.2658 21.722 35.3383 21.4843 35.5775L15.1938 41.8763C13.2404 43.8297 10.0734 43.8297 8.12003 41.8763C6.16667 39.923 6.16667 36.756 8.12003 34.8026L18.7598 24.1712C20.7116 22.2218 23.8734 22.2218 25.8252 24.1712C27.1406 25.4092 29.1924 25.4092 30.5077 24.1712C31.0736 23.6048 31.4167 22.8536 31.4742 22.0549C31.5351 21.1005 31.1831 20.1658 30.5076 19.4887Z" fill="#CCD6F6"/>
<path d="M46.5799 3.41665C42.0243 -1.13888 34.6384 -1.13888 30.0828 3.41665L21.3427 12.1484C21.1027 12.3895 21.0335 12.7523 21.1677 13.0649C21.3004 13.3784 21.6105 13.5797 21.9509 13.5731H22.2591C24.0848 13.5698 25.8933 13.9235 27.5832 14.6146C27.8951 14.743 28.2537 14.6706 28.4913 14.4314L34.7652 8.16579C36.7185 6.21243 39.8856 6.21243 41.8389 8.16579C43.7923 10.1192 43.7923 13.2862 41.8389 15.2395L34.0236 23.0464L33.9569 23.1214L31.2241 25.8376C29.2723 27.787 26.1105 27.787 24.1587 25.8376C22.8433 24.5997 20.7915 24.5997 19.4762 25.8376C18.9067 26.4083 18.5633 27.1661 18.5097 27.9705C18.4488 28.925 18.8008 29.8597 19.4762 30.5368C20.4406 31.5053 21.5689 32.2951 22.8089 32.8697C22.9839 32.9529 23.1589 33.0196 23.3338 33.0946C23.5088 33.1696 23.6921 33.2279 23.867 33.2946C24.042 33.3613 24.2253 33.4196 24.4003 33.4696L24.8919 33.6028C25.2251 33.6861 25.5584 33.7528 25.9 33.8111C26.3114 33.8722 26.7258 33.9112 27.1415 33.9278H27.7247H27.7746L28.2746 33.8695C28.4578 33.8612 28.6495 33.8195 28.8661 33.8195H29.1494L29.7243 33.7362L29.9909 33.6862L30.4742 33.5862H30.5658C32.6124 33.0722 34.4813 32.0125 35.9732 30.5201L46.5796 19.9137C51.1354 15.3582 51.1354 7.97218 46.5799 3.41665Z" fill="#CCD6F6"/>
</svg>
