<svg width="42" height="42" viewBox="0 0 42 42" fill="none" xmlns="http://www.w3.org/2000/svg">
<path d="M21 42C20.0638 42 19.1837 41.6354 18.5217 40.9735L1.02654 23.4783C0.364577 22.8163 0 21.9362 0 21C0 20.0638 0.364577 19.1837 1.02654 18.5217L18.5217 1.02654C19.1837 0.364577 20.0638 0 21 0C21.9362 0 22.8163 0.364577 23.4783 1.02654L40.9735 18.5217C41.6354 19.1837 42 20.0638 42 21C42 21.9362 41.6354 22.8163 40.9735 23.4783L23.4783 40.9735C22.8163 41.6354 21.9362 42 21 42V42ZM21 2.46114C20.7212 2.46114 20.4591 2.56968 20.262 2.76681L2.76681 20.262C2.3599 20.6689 2.3599 21.3311 2.76681 21.738L20.262 39.2332C20.4591 39.4303 20.7212 39.5389 21 39.5389C21.2788 39.5389 21.5409 39.4303 21.738 39.2332L39.2332 21.738C39.6401 21.3311 39.6401 20.6689 39.2332 20.262L21.738 2.76681C21.5409 2.56968 21.2788 2.46114 21 2.46114V2.46114Z" fill="#64FFDA"/>
<path d="M14.631 24.25V17.625C14.631 15.5917 15.181 14.1 16.281 13.15C17.3976 12.2 18.8476 11.725 20.631 11.725C22.4643 11.725 23.9643 12.1667 25.131 13.05C26.3143 13.9333 26.906 15.15 26.906 16.7C26.906 17.4167 26.756 17.9083 26.456 18.175C26.156 18.425 25.656 18.55 24.956 18.55C23.706 18.55 23.056 18.1583 23.006 17.375C22.956 15.875 22.2143 15.125 20.781 15.125C19.281 15.125 18.531 15.9583 18.531 17.625V24.25C18.531 25.9167 19.2893 26.75 20.806 26.75C21.2726 26.75 21.656 26.675 21.956 26.525C22.2726 26.375 22.4976 26.15 22.631 25.85C22.7643 25.5333 22.8476 25.275 22.881 25.075C22.931 24.875 22.9726 24.6 23.006 24.25C23.0726 23.4667 23.7143 23.075 24.931 23.075C25.6476 23.075 26.156 23.2083 26.456 23.475C26.756 23.725 26.906 24.2083 26.906 24.925C26.906 26.5417 26.3143 27.8167 25.131 28.75C23.9643 29.6833 22.4643 30.15 20.631 30.15C18.8476 30.15 17.3976 29.675 16.281 28.725C15.181 27.775 14.631 26.2833 14.631 24.25Z" fill="#64FFDA"/>
</svg>
