<svg width="40" height="40" viewBox="0 0 40 40" fill="none" xmlns="http://www.w3.org/2000/svg">
<path d="M19.9975 0C8.955 0 0 9.18112 0 20.5069C0 29.5655 5.73 37.2504 13.68 39.9644C14.68 40.1534 15.045 39.5202 15.045 38.9764C15.045 38.4887 15.0275 37.1994 15.0175 35.4888C9.455 36.727 8.28 32.739 8.28 32.739C7.3725 30.3697 6.06 29.7391 6.06 29.7391C4.2425 28.4676 6.195 28.4931 6.195 28.4931C8.2025 28.6387 9.2575 30.6071 9.2575 30.6071C11.0425 33.7399 13.94 32.836 15.08 32.3101C15.26 30.985 15.7775 30.0812 16.35 29.568C11.91 29.0497 7.24 27.2906 7.24 19.4346C7.24 17.1955 8.02 15.3648 9.3 13.93C9.0925 13.4117 8.4075 11.3258 9.495 8.50454C9.495 8.50454 11.175 7.95306 14.995 10.6058C16.59 10.1513 18.3 9.92409 20.0025 9.91643C21.7 9.92664 23.4125 10.1513 25.01 10.6083C28.8275 7.95561 30.505 8.50709 30.505 8.50709C31.595 11.3309 30.91 13.4142 30.705 13.9325C31.9875 15.3674 32.76 17.198 32.76 19.4371C32.76 27.3136 28.085 29.0472 23.63 29.5552C24.3475 30.1884 24.9875 31.4395 24.9875 33.3518C24.9875 36.0939 24.9625 38.3049 24.9625 38.9764C24.9625 39.5253 25.3225 40.1636 26.3375 39.9619C34.275 37.2453 40 29.5629 40 20.5069C40 9.18112 31.045 0 19.9975 0Z" fill="#CCD6F6"/>
</svg>
