<svg width="40" height="40" viewBox="0 0 40 40" fill="none" xmlns="http://www.w3.org/2000/svg">
<path d="M28.9612 0H11.0383C4.95179 0 0 4.95203 0 11.0386V28.9614C0 35.0482 4.95179 40 11.0383 40H28.9612C35.0482 40 40 35.048 40 28.9614V11.0386C40.0002 4.95203 35.0482 0 28.9612 0ZM36.4512 28.9614C36.4512 33.0913 33.0913 36.451 28.9614 36.451H11.0383C6.90871 36.4512 3.54899 33.0913 3.54899 28.9614V11.0386C3.54899 6.90894 6.90871 3.54899 11.0383 3.54899H28.9612C33.0911 3.54899 36.451 6.90894 36.451 11.0386V28.9614H36.4512Z" fill="#CCD6F6"/>
<path d="M19.9999 9.69348C14.3165 9.69348 9.69287 14.3171 9.69287 20.0005C9.69287 25.6836 14.3165 30.307 19.9999 30.307C25.6832 30.307 30.3068 25.6836 30.3068 20.0005C30.3068 14.3171 25.6832 9.69348 19.9999 9.69348ZM19.9999 26.7578C16.2737 26.7578 13.2419 23.7264 13.2419 20.0002C13.2419 16.2738 16.2734 13.2422 19.9999 13.2422C23.7263 13.2422 26.7579 16.2738 26.7579 20.0002C26.7579 23.7264 23.7261 26.7578 19.9999 26.7578Z" fill="#CCD6F6"/>
<path d="M30.7393 6.6842C30.0555 6.6842 29.3838 6.96103 28.9009 7.44606C28.4157 7.92872 28.1367 8.60066 28.1367 9.2868C28.1367 9.97081 28.4159 10.6425 28.9009 11.1275C29.3836 11.6102 30.0555 11.8894 30.7393 11.8894C31.4254 11.8894 32.095 11.6102 32.5801 11.1275C33.0651 10.6425 33.3419 9.97057 33.3419 9.2868C33.3419 8.60066 33.0651 7.92872 32.5801 7.44606C32.0974 6.96103 31.4254 6.6842 30.7393 6.6842Z" fill="#CCD6F6"/>
</svg>
