<svg width="40" height="40" viewBox="0 0 40 40" fill="none" xmlns="http://www.w3.org/2000/svg">
<g clip-path="url(#clip0)">
<path d="M12.5006 33.0469H7.03186V15.3906H12.5006V33.0469ZM13.0463 9.76532C13.0463 7.99744 11.6119 6.5625 9.84497 6.5625C8.07129 6.5625 6.64062 7.99744 6.64062 9.76532C6.64062 11.5338 8.07129 12.9688 9.84497 12.9688C11.6119 12.9688 13.0463 11.5338 13.0463 9.76532ZM32.9688 23.3331C32.9688 18.5934 31.9675 15.0781 26.4307 15.0781C23.7701 15.0781 21.9843 16.4087 21.2552 17.7924H21.25V15.3906H15.9375V33.0469H21.25V24.2804C21.25 21.9846 21.8344 19.7604 24.6802 19.7604C27.4872 19.7604 27.5781 22.3859 27.5781 24.4263V33.0469H32.9688V23.3331ZM40 35.3125V4.6875C40 2.10266 37.8973 0 35.3125 0H4.6875C2.10266 0 0 2.10266 0 4.6875V35.3125C0 37.8973 2.10266 40 4.6875 40H35.3125C37.8973 40 40 37.8973 40 35.3125V35.3125ZM35.3125 3.125C36.174 3.125 36.875 3.82599 36.875 4.6875V35.3125C36.875 36.174 36.174 36.875 35.3125 36.875H4.6875C3.82599 36.875 3.125 36.174 3.125 35.3125V4.6875C3.125 3.82599 3.82599 3.125 4.6875 3.125H35.3125Z" fill="#CCD6F6"/>
</g>
<defs>
<clipPath id="clip0">
<rect width="40" height="40" fill="white"/>
</clipPath>
</defs>
</svg>
