<svg width="40" height="40" viewBox="0 0 40 40" fill="none" xmlns="http://www.w3.org/2000/svg">
<path d="M29.4361 0H10.5639C4.64 0 0 4.64 0 10.5639V29.4361C0 35.36 4.64 40 10.5639 40H29.4361C35.36 40 40 35.36 40 29.4361V10.5639C40 4.64 35.3587 0 29.4361 0ZM37.4194 29.4361C37.4194 33.9135 33.9123 37.4194 29.4361 37.4194H10.5639C6.08774 37.4194 2.58065 33.9123 2.58065 29.4361V10.5639C2.58065 6.08774 6.08774 2.58065 10.5639 2.58065H29.4361C33.9135 2.58065 37.4194 6.08774 37.4194 10.5639V29.4361Z" fill="#CCD6F6"/>
<path d="M32.5791 10.2128C32.1649 9.90962 31.6101 9.88381 31.1675 10.1419C30.7262 10.4012 29.7482 10.529 28.9636 10.6322C28.8011 10.6541 28.6411 10.6748 28.4862 10.6967C27.3882 9.78575 25.9856 9.27478 24.5391 9.27478C21.2811 9.27478 18.6075 11.7961 18.4178 14.9677C15.463 14.4696 12.7572 12.929 10.8398 10.6141C10.5546 10.2683 10.112 10.0993 9.66558 10.1574C9.22171 10.2193 8.84236 10.507 8.663 10.9174C8.58042 11.1057 7.86042 12.8774 7.86042 17.2593C7.86042 21.0541 10.8553 23.8425 12.9095 25.3096C11.5043 25.9483 9.88494 26.1832 8.34687 26.0128C7.74558 25.9483 7.183 26.3019 6.98429 26.8683C6.78558 27.4361 7.00494 28.0657 7.51332 28.387C9.93913 29.9174 12.743 30.7264 15.623 30.7264C24.872 30.7264 30.4695 23.4606 30.6772 16.2967C30.943 15.9109 31.4501 15.1599 32.3069 13.8425C32.6501 13.3122 32.9378 12.169 33.0785 11.5354C33.1907 11.0348 32.9933 10.5148 32.5791 10.2128ZM28.3495 15.1238C28.1907 15.3432 28.1043 15.609 28.1043 15.8799C28.1043 20.9728 24.232 28.1457 15.6243 28.1457C14.8462 28.1457 14.0746 28.0748 13.3185 27.9354C14.3275 27.5535 15.2811 27.0206 16.1572 26.3457C16.5082 26.0761 16.6953 25.6425 16.654 25.2025C16.6127 24.7625 16.3482 24.3728 15.952 24.1728C15.8966 24.1445 10.4424 21.2761 10.4424 17.2606C10.4424 15.9148 10.5146 14.8567 10.6101 14.0516C13.143 16.2322 16.3662 17.5367 19.7585 17.7045C19.7843 17.7057 19.8114 17.707 19.8359 17.7057C20.5869 17.6838 21.1391 17.1328 21.1391 16.4154C21.1391 16.2374 21.103 16.0683 21.0372 15.9135C21.0049 15.7199 20.9882 15.5251 20.9882 15.3303C20.9882 13.4141 22.5804 11.8554 24.5391 11.8554C25.5224 11.8554 26.4682 12.258 27.1353 12.9587C27.4398 13.2761 27.8849 13.4193 28.3146 13.3354C28.6075 13.2799 28.9456 13.2361 29.3004 13.1896C29.4269 13.1728 29.5546 13.1561 29.6849 13.138C28.7159 14.6141 28.3662 15.1006 28.3495 15.1238Z" fill="#CCD6F6"/>
</svg>
