<svg width="86" height="86" viewBox="0 0 86 86" fill="none" xmlns="http://www.w3.org/2000/svg">
<path d="M3 82.8909L10.3302 66.0092C4.72221 58.0484 2.21219 48.3147 3.27119 38.6347C4.3302 28.9547 8.88542 19.9939 16.082 13.434C23.2786 6.87401 32.6218 3.16587 42.3582 3.00543C52.0946 2.84499 61.555 6.24329 68.9638 12.5626C76.3726 18.8818 81.2206 27.6877 82.5979 37.3275C83.9753 46.9674 81.7873 56.7785 76.4447 64.9197C71.102 73.061 62.9719 78.9726 53.5801 81.5453C44.1884 84.1179 34.1806 83.1747 25.4349 78.8926L3 82.8909Z" stroke="#112240" stroke-width="5" stroke-linecap="round" stroke-linejoin="round"/>
<path d="M29.6553 34.0227C29.6553 34.6118 29.8893 35.1768 30.3059 35.5934C30.7224 36.01 31.2874 36.244 31.8765 36.244C32.4657 36.244 33.0307 36.01 33.4472 35.5934C33.8638 35.1768 34.0978 34.6118 34.0978 34.0227V29.5802C34.0978 28.991 33.8638 28.4261 33.4472 28.0095C33.0307 27.5929 32.4657 27.3589 31.8765 27.3589C31.2874 27.3589 30.7224 27.5929 30.3059 28.0095C29.8893 28.4261 29.6553 28.991 29.6553 29.5802V34.0227ZM29.6553 34.0227C29.6553 39.9139 31.9955 45.5638 36.1612 49.7295C40.3269 53.8952 45.9768 56.2354 51.868 56.2354M51.868 56.2354H56.3106C56.8997 56.2354 57.4647 56.0014 57.8812 55.5849C58.2978 55.1683 58.5318 54.6033 58.5318 54.0142C58.5318 53.4251 58.2978 52.8601 57.8812 52.4435C57.4647 52.0269 56.8997 51.7929 56.3106 51.7929H51.868C51.2789 51.7929 50.7139 52.0269 50.2973 52.4435C49.8808 52.8601 49.6467 53.4251 49.6467 54.0142C49.6467 54.6033 49.8808 55.1683 50.2973 55.5849C50.7139 56.0014 51.2789 56.2354 51.868 56.2354Z" stroke="#112240" stroke-width="5" stroke-linecap="round" stroke-linejoin="round"/>
</svg>
